 <svg version="1.0" xmlns="http://www.w3.org/2000/svg" width="700.000000pt" height="283.000000pt" viewBox="0 0 700.000000 283.000000" preserveAspectRatio="xMidYMid meet">
<metadata>
Created by potrace 1.12, written by Peter Selinger 2001-2015
</metadata>
<g transform="translate(0.000000,283.000000) scale(0.100000,-0.100000)" fill="#000000" stroke="none">
<path d="M767 1991 c-102 -41 -192 -135 -227 -236 -38 -109 -24 -198 55 -355
76 -151 282 -445 312 -445 19 0 178 218 262 360 99 167 116 214 116 325 0 85
-3 101 -29 155 -38 76 -105 143 -181 180 -52 26 -73 30 -160 32 -80 3 -109 -1
-148 -16z m214 -25 c103 -24 189 -91 241 -188 19 -36 23 -58 23 -138 0 -92 -1
-98 -46 -190 -47 -99 -229 -378 -272 -418 l-25 -23 -34 43 c-106 131 -241 352
-284 463 -49 131 -18 273 80 363 95 88 199 116 317 88z"></path>
<path d="M851 1919 c-128 -25 -232 -145 -239 -280 -7 -117 57 -222 170 -280
60 -32 174 -32 239 -2 63 28 125 93 156 160 21 46 24 66 21 126 -5 86 -26 136
-86 195 -70 70 -164 99 -261 81z m165 -57 c46 -24 105 -84 128 -129 20 -40 21
-151 2 -197 -22 -52 -86 -117 -141 -142 -240 -113 -462 180 -299 393 31 41 92
82 136 94 49 12 130 3 174 -19z"></path>
<path d="M923 1774 c-3 -8 4 -25 16 -37 l21 -23 -70 -69 -69 -69 -24 22 c-13
12 -28 22 -35 22 -18 0 -25 -20 -11 -36 9 -12 9 -20 -1 -39 -12 -22 -11 -28 9
-49 19 -20 32 -24 74 -22 56 2 69 16 41 47 -17 19 -16 21 49 86 63 64 67 66
85 50 32 -30 79 -14 52 18 -8 10 -8 19 2 34 11 19 9 24 -18 52 -28 28 -33 29
-52 18 -17 -11 -24 -11 -34 -1 -16 16 -27 15 -35 -4z m92 -54 c3 -5 -1 -10
-10 -10 -9 0 -13 5 -10 10 3 6 8 10 10 10 2 0 7 -4 10 -10z m-201 -191 c-3 -5
-10 -7 -15 -3 -5 3 -7 10 -3 15 3 5 10 7 15 3 5 -3 7 -10 3 -15z"></path>
<path d="M1544 1967 c-3 -8 -4 -52 -2 -98 l3 -84 45 -5 45 -5 0 -290 0 -290
-45 -5 -45 -5 0 -95 0 -95 195 0 195 0 0 95 0 95 -45 5 -45 5 0 95 0 95 95 1
95 1 0 94 0 94 -95 5 -95 5 0 95 0 95 95 0 95 0 1 -45 1 -45 94 0 94 0 0 145
0 145 -338 3 c-276 2 -338 0 -343 -11z m96 -35 c0 -5 -9 -17 -20 -27 -11 -10
-20 -23 -20 -30 0 -18 32 -43 60 -47 17 -2 26 -10 28 -25 4 -26 -10 -30 -28
-8 -7 8 -27 19 -44 23 -28 7 -31 12 -34 51 -2 23 2 49 9 57 12 15 49 19 49 6z
m548 -19 c4 -27 -5 -29 -30 -6 -24 22 -23 35 5 31 14 -2 23 -11 25 -25z m-40
-85 c2 -47 0 -58 -13 -58 -11 0 -15 11 -15 45 l0 45 -170 2 c-93 0 -176 1
-182 2 -10 1 -13 -42 -13 -183 l0 -183 92 -2 c124 -1 126 -20 3 -26 l-95 -5 0
-180 0 -180 43 -3 c83 -6 41 -22 -58 -22 -99 0 -141 16 -57 22 l42 3 0 380 0
380 -37 -3 c-41 -4 -62 4 -52 19 3 6 106 8 257 7 l252 -3 3 -57z m-308 -5 c-1
-10 -36 -53 -44 -53 -8 0 -8 45 1 53 9 9 43 9 43 0z m243 -18 c6 -11 13 -26
17 -34 13 -29 38 -36 58 -18 25 23 34 21 30 -5 -2 -19 -10 -24 -46 -26 -50 -4
-72 10 -72 44 0 13 -9 29 -20 36 -26 17 -26 30 1 26 12 -2 27 -12 32 -23z
m-258 -240 c32 -33 31 -37 -2 -33 -22 2 -29 9 -31 31 -4 33 0 34 33 2z m170
-80 c0 -44 -3 -50 -22 -53 -26 -4 -30 10 -8 28 8 7 15 18 15 25 0 7 -7 18 -15
25 -22 18 -18 32 8 28 19 -3 22 -9 22 -53z m-165 -62 c-1 -11 -26 -43 -34 -43
-8 0 -8 35 1 43 9 9 33 9 33 0z m-142 -255 c-2 -14 -14 -25 -36 -33 -42 -13
-57 -37 -42 -65 6 -11 17 -20 25 -20 8 0 15 -5 15 -11 0 -6 -14 -9 -32 -7 -33
3 -33 3 -33 58 0 54 0 54 35 61 19 4 39 15 45 23 14 23 27 20 23 -6z m126 6
c7 -9 28 -19 46 -23 35 -7 35 -7 35 -61 0 -55 0 -55 -32 -58 -19 -2 -33 1 -33
7 0 6 7 11 15 11 8 0 19 9 25 20 15 28 0 52 -42 65 -22 8 -34 19 -36 33 -4 26
6 28 22 6z"></path>
<path d="M2324 1967 c-3 -8 -4 -52 -2 -98 l3 -84 45 -5 45 -5 0 -290 0 -290
-45 -5 -45 -5 0 -95 0 -95 194 0 194 0 1 95 0 95 -47 3 -47 3 0 285 c0 156 0
287 0 292 0 4 21 9 47 12 l48 5 0 95 0 95 -193 3 c-155 2 -193 0 -198 -11z
m84 -34 c-2 -5 -10 -20 -17 -35 -13 -25 -12 -30 3 -47 10 -11 30 -21 45 -23
20 -2 27 -9 29 -30 4 -33 -8 -36 -25 -8 -7 11 -27 23 -45 28 -30 7 -33 12 -36
51 -4 55 2 71 29 71 11 0 19 -3 17 -7z m261 -7 c7 -8 11 -34 9 -57 -3 -39 -6
-44 -34 -51 -17 -4 -37 -15 -44 -23 -18 -22 -32 -18 -28 8 2 15 11 23 28 25
28 4 60 29 60 47 0 7 -9 20 -20 30 -11 10 -20 22 -20 27 0 13 37 9 49 -6z
m-47 -51 c-1 -5 -21 -10 -45 -10 l-42 0 0 -380 0 -380 43 -3 c83 -6 41 -22
-58 -22 -99 0 -141 16 -57 22 l42 3 0 380 0 380 -34 -3 c-42 -3 -65 4 -56 18
9 14 211 9 207 -5z m-154 -707 c-2 -14 -14 -25 -37 -33 -19 -6 -39 -18 -44
-27 -13 -21 -2 -49 23 -55 32 -9 23 -25 -12 -21 -33 3 -33 3 -33 58 0 52 1 55
26 58 15 2 35 12 45 23 23 25 36 24 32 -3z m147 -7 c60 -26 60 -26 60 -77 0
-48 -1 -49 -32 -52 -38 -4 -43 7 -12 26 31 20 21 54 -23 75 -21 10 -38 25 -38
34 0 8 3 13 8 11 4 -2 21 -10 37 -17z"></path>
<path d="M2804 1967 c-2 -7 -3 -74 -2 -148 l3 -134 95 0 95 0 5 45 5 45 45 0
45 0 0 -290 0 -290 -45 -5 -45 -5 0 -95 0 -95 194 0 194 0 0 95 0 95 -47 3
-46 3 0 285 c0 156 0 287 0 292 0 4 21 7 48 7 l47 0 1 -45 1 -45 94 0 94 0 0
145 0 145 -388 3 c-312 2 -389 0 -393 -11z m96 -33 c0 -8 -43 -43 -52 -44 -12
0 -9 25 4 38 12 12 48 17 48 6z m648 -21 c4 -27 -5 -29 -30 -6 -24 22 -23 35
5 31 14 -2 23 -11 25 -25z m-40 -85 c2 -46 0 -58 -12 -58 -11 0 -16 13 -18 46
l-3 45 -130 1 -130 0 0 -378 0 -379 43 -3 c83 -6 41 -22 -58 -22 -99 0 -141
16 -57 22 l42 3 0 379 0 379 -135 -1 -135 0 2 -46 c2 -35 -1 -46 -12 -46 -11
0 -15 13 -15 53 0 30 3 57 7 60 4 4 142 6 307 5 l301 -3 3 -57z m-498 -6 c0
-4 -9 -13 -20 -19 -11 -7 -23 -27 -28 -45 -8 -32 -10 -33 -63 -33 -48 0 -54 2
-57 23 -4 25 10 29 28 7 7 -8 19 -15 28 -15 23 0 52 30 52 55 0 12 3 25 7 28
9 10 53 9 53 -1z m138 -24 c4 -34 0 -35 -33 -3 -32 33 -31 37 3 33 21 -2 28
-9 30 -30z m152 27 c0 -3 -9 -14 -20 -25 -11 -11 -22 -20 -25 -20 -7 0 -6 36
2 43 7 8 43 9 43 2z m141 -22 c20 -50 26 -58 46 -61 11 -2 26 4 33 13 18 22
32 19 28 -7 -2 -19 -10 -24 -46 -26 -50 -4 -72 10 -72 44 0 13 -9 29 -20 36
-26 16 -26 28 0 28 13 0 24 -10 31 -27z m-293 -635 c-2 -14 -14 -25 -37 -33
-19 -6 -39 -18 -44 -27 -13 -21 -2 -49 23 -55 32 -9 23 -25 -12 -21 -33 3 -33
3 -33 58 0 52 1 55 26 58 15 2 35 12 45 23 23 25 36 24 32 -3z m147 -7 c58
-26 60 -28 61 -67 2 -46 -10 -64 -42 -64 -29 0 -31 11 -3 28 33 21 22 63 -21
77 -19 7 -37 20 -38 30 -2 9 0 16 5 13 4 -2 22 -10 38 -17z"></path>
<path d="M3684 1967 c-3 -8 -4 -52 -2 -98 l3 -84 45 -5 45 -5 0 -290 0 -290
-45 -5 -45 -5 0 -95 0 -95 190 0 190 0 3 97 3 97 -48 3 -48 3 0 95 0 95 140 0
140 0 0 -95 0 -95 -45 -5 -45 -5 0 -95 0 -95 195 0 195 0 0 95 0 95 -47 3 -48
3 0 294 0 294 48 3 47 3 0 95 0 95 -195 0 -195 0 0 -95 0 -95 45 -5 45 -5 0
-95 0 -95 -140 0 -140 0 0 95 0 95 45 5 45 5 3 98 3 97 -191 0 c-150 0 -192
-3 -196 -13z m86 -36 c0 -5 -7 -14 -15 -21 -32 -27 -6 -75 45 -82 19 -2 26
-10 28 -30 4 -32 -5 -36 -23 -11 -7 9 -28 22 -46 28 -31 11 -34 16 -37 54 -2
24 -1 50 2 57 6 15 46 20 46 5z m258 -49 c3 -49 2 -53 -25 -62 -15 -6 -36 -15
-45 -20 -24 -14 -30 -13 -26 6 2 9 19 22 38 28 27 8 36 17 38 37 2 14 -4 31
-12 39 -23 18 -20 32 7 28 19 -3 22 -10 25 -56z m220 51 c-2 -5 -10 -20 -17
-35 -13 -25 -12 -30 3 -47 10 -11 30 -21 45 -23 20 -2 27 -9 29 -30 4 -33 -8
-36 -25 -8 -7 11 -27 23 -45 28 -30 7 -33 12 -36 51 -3 44 10 71 35 71 8 0 13
-3 11 -7z m261 -7 c7 -8 11 -34 9 -57 -3 -39 -6 -44 -34 -51 -17 -4 -37 -15
-44 -23 -18 -22 -32 -18 -28 8 2 15 11 23 28 25 28 4 60 29 60 47 0 7 -9 20
-20 30 -11 10 -20 22 -20 27 0 13 37 9 49 -6z m-529 -51 c-3 -5 -23 -10 -45
-11 l-40 -1 0 -182 0 -182 225 0 225 0 0 183 0 183 -40 0 c-22 0 -41 5 -42 10
-2 6 35 10 97 10 62 0 99 -4 98 -10 -2 -5 -21 -10 -43 -10 l-40 0 0 -380 0
-380 43 -3 c83 -6 41 -22 -58 -22 -99 0 -141 16 -57 22 l42 3 0 180 0 180
-225 0 -225 0 0 -180 0 -180 43 -3 c23 -2 42 -7 42 -13 0 -5 -46 -9 -105 -9
-59 0 -105 4 -105 9 0 6 20 11 45 13 l45 3 1 380 0 380 -46 -3 c-36 -3 -45 -1
-45 12 0 15 14 16 108 14 67 -2 105 -7 102 -13z m328 -312 c-2 -20 -9 -29 -25
-31 -28 -4 -28 2 -5 33 23 32 34 31 30 -2z m-345 -7 c23 -18 21 -28 -5 -24
-13 2 -24 11 -26 21 -4 20 6 21 31 3z m7 -135 c0 -12 -29 -35 -36 -28 -11 10
5 37 21 37 8 0 15 -4 15 -9z m338 -19 c4 -26 -6 -28 -24 -4 -18 24 -17 34 4
30 9 -2 18 -13 20 -26z m2 -227 c0 -19 -7 -28 -27 -35 -47 -17 -58 -26 -58
-51 0 -15 8 -28 23 -34 32 -14 27 -27 -10 -23 -33 3 -33 3 -33 58 0 53 1 55
28 58 15 2 35 14 45 27 22 31 32 31 32 0z m-482 -7 c-2 -14 -13 -24 -31 -29
-57 -15 -76 -57 -37 -81 28 -18 25 -30 -7 -26 -27 3 -28 5 -28 58 0 52 1 55
26 58 15 2 35 12 45 23 23 25 36 24 32 -3z m612 2 c11 -11 28 -20 39 -20 29 0
43 -25 39 -72 -3 -40 -5 -43 -35 -46 -19 -2 -33 1 -33 7 0 6 7 11 15 11 8 0
19 9 25 20 15 28 0 52 -42 65 -22 8 -34 19 -36 33 -4 27 2 28 28 2z m-470 -7
c14 -6 33 -14 43 -17 15 -5 18 -15 15 -58 -3 -49 -5 -53 -30 -56 -33 -4 -36 8
-7 26 31 20 21 54 -23 75 -21 10 -38 25 -38 34 0 8 3 13 8 11 4 -2 18 -9 32
-15z"></path>
<path d="M4644 1967 c-3 -8 -4 -52 -2 -98 l3 -84 45 -5 45 -5 5 -280 5 -280
28 -57 c32 -64 80 -111 146 -142 40 -18 65 -21 186 -21 133 0 143 1 197 28 61
30 105 74 140 140 22 40 23 55 28 327 l5 285 45 5 45 5 0 95 0 95 -195 0 -195
0 1 -95 2 -95 46 -5 c26 -3 46 -8 46 -12 0 -5 0 -123 0 -264 l0 -256 -29 -29
c-29 -28 -32 -29 -136 -29 -105 0 -107 1 -136 29 l-29 30 2 263 3 263 45 5 45
5 0 95 0 95 -193 3 c-155 2 -193 0 -198 -11z m96 -37 c0 -5 -5 -10 -10 -10 -6
0 -16 -11 -22 -25 -9 -20 -8 -28 6 -44 10 -11 30 -21 45 -23 20 -2 27 -9 29
-30 4 -33 -8 -36 -25 -8 -7 11 -27 23 -45 28 -30 7 -33 12 -36 51 -2 23 2 49
9 57 13 16 49 19 49 4z m249 -4 c7 -8 11 -34 9 -57 -3 -39 -6 -44 -34 -51 -17
-4 -37 -15 -44 -23 -18 -22 -32 -18 -28 8 2 15 11 23 29 25 15 2 35 12 45 23
14 16 15 24 6 44 -6 14 -16 25 -22 25 -5 0 -10 5 -10 10 0 15 36 12 49 -4z
m281 6 c0 -5 -11 -19 -25 -32 -22 -20 -25 -21 -31 -6 -3 9 -1 23 6 31 13 16
50 21 50 7z m255 -51 c0 -53 -1 -55 -33 -63 -18 -5 -38 -17 -45 -28 -17 -28
-29 -25 -25 8 2 21 9 28 29 30 15 2 35 12 45 23 15 17 16 22 3 47 -7 15 -15
31 -17 35 -2 5 6 7 19 5 22 -3 24 -8 24 -57z m-583 -6 c-1 -5 -21 -10 -45 -10
l-42 0 -3 -295 c-3 -317 0 -347 45 -401 44 -52 94 -69 208 -69 118 0 168 19
219 83 l31 39 0 321 0 322 -40 0 c-22 0 -41 5 -42 10 -2 6 35 10 97 10 62 0
99 -4 98 -10 -2 -5 -21 -10 -43 -10 l-40 0 -5 -327 -5 -326 -30 -44 c-18 -25
-49 -53 -75 -66 -41 -21 -56 -23 -176 -20 -124 3 -133 4 -171 31 -22 15 -50
46 -64 70 -24 41 -24 46 -29 362 l-5 320 -37 -3 c-41 -4 -62 4 -52 19 8 13
210 7 206 -6z m348 -47 c17 -2 26 -10 28 -25 4 -28 -3 -29 -35 -3 -14 11 -31
20 -38 20 -18 0 -38 27 -30 40 5 8 14 5 29 -8 11 -11 32 -22 46 -24z"></path>
<path d="M5665 1967 c-3 -7 -5 -52 -3 -98 l3 -84 45 -5 45 -5 0 -290 0 -290
-45 -5 -45 -5 0 -95 0 -95 280 0 c264 0 283 1 326 21 67 31 114 78 149 146 49
99 40 229 -23 311 l-26 34 30 58 c71 141 14 312 -129 382 l-57 28 -273 3
c-227 3 -273 1 -277 -11z m85 -36 c0 -5 -7 -14 -16 -21 -8 -8 -14 -25 -12 -39
2 -20 11 -29 38 -37 35 -12 60 -38 47 -50 -4 -4 -15 0 -24 8 -10 9 -31 20 -48
25 -26 8 -30 15 -33 52 -2 24 -1 50 2 57 6 15 46 20 46 5z m491 -69 c43 -22
59 -38 81 -81 16 -30 28 -69 28 -90 0 -54 -44 -136 -87 -163 -34 -20 -35 -23
-17 -32 70 -39 124 -129 124 -208 0 -55 -45 -134 -98 -171 l-47 -32 -237 -3
c-153 -2 -238 1 -238 7 0 5 19 11 43 13 l42 3 0 380 0 380 -37 -3 c-21 -2 -42
-1 -48 3 -31 19 21 25 219 25 l219 0 53 -28z m99 -364 c0 -30 -1 -31 -16 -16
-9 9 -14 24 -11 32 11 27 27 17 27 -16z m-532 -330 c-2 -14 -13 -24 -31 -29
-57 -15 -76 -57 -37 -81 28 -18 25 -30 -7 -26 -27 3 -28 5 -28 58 0 52 1 55
26 58 15 2 35 12 45 23 23 25 36 24 32 -3z"></path>
<path d="M5870 1696 l0 -176 169 0 c158 0 170 1 202 23 55 37 79 81 79 147 0
66 -24 110 -79 147 -32 21 -44 23 -187 23 -84 0 -159 3 -168 6 -14 5 -16 -13
-16 -170z m90 128 c0 -8 -43 -43 -52 -44 -12 0 -9 25 4 38 12 12 48 17 48 6z
m251 -73 c39 -40 39 -82 -1 -122 l-29 -30 -113 3 -113 3 -3 74 c-2 41 -1 80 2
88 4 10 33 13 116 13 110 0 112 0 141 -29z m-273 -170 c27 -23 28 -31 4 -31
-21 0 -42 18 -42 37 0 18 11 16 38 -6z"></path>
<path d="M5875 1478 c-3 -8 -4 -95 -3 -193 l3 -180 145 -3 c86 -2 160 1 183 8
47 14 106 65 123 107 35 83 4 190 -69 239 -41 29 -44 29 -210 32 -133 3 -168
1 -172 -10z m75 -36 c0 -10 -41 -35 -47 -28 -11 11 7 36 27 36 11 0 20 -3 20
-8z m277 -76 c32 -34 35 -43 30 -80 -4 -29 -15 -49 -37 -69 -31 -27 -32 -28
-148 -25 l-117 3 -3 94 c-1 52 0 101 3 109 4 11 28 13 121 10 l116 -3 35 -39z
m-295 -193 c24 -22 23 -35 -4 -31 -15 2 -24 11 -26 26 -4 26 5 28 30 5z"></path>
</g>
</svg>