 <svg version="1.0" xmlns="http://www.w3.org/2000/svg" width="700.000000pt" height="251.000000pt" viewBox="0 0 700.000000 251.000000" preserveAspectRatio="xMidYMid meet">
<metadata>
Created by potrace 1.12, written by Peter Selinger 2001-2015
</metadata>
<g transform="translate(0.000000,251.000000) scale(0.100000,-0.100000)" fill="#000000" stroke="none">
<path d="M593 1966 c-67 -22 -124 -60 -181 -120 -62 -66 -87 -117 -103 -212
-11 -63 -10 -76 10 -144 27 -88 87 -205 175 -339 87 -133 204 -291 216 -291
28 0 278 365 344 503 57 119 70 172 63 255 -9 88 -60 194 -123 251 -25 24 -75
57 -112 74 -57 27 -81 32 -157 34 -57 2 -106 -2 -132 -11z m270 -54 c66 -30
152 -114 183 -181 36 -74 43 -169 19 -242 -26 -81 -97 -213 -182 -340 -86
-130 -161 -229 -172 -229 -4 0 -34 37 -68 83 -153 207 -261 397 -289 509 -42
165 63 349 236 412 64 23 209 17 273 -12z"></path>
<path d="M657 1879 c-91 -15 -187 -92 -230 -188 -32 -68 -30 -179 2 -245 73
-149 254 -221 396 -157 59 26 126 88 163 151 24 40 27 55 27 135 0 107 -22
162 -93 227 -74 68 -163 94 -265 77z m172 -59 c59 -30 94 -64 125 -121 38 -68
40 -163 7 -233 -30 -61 -109 -130 -172 -151 -124 -42 -265 24 -325 150 -27 57
-31 137 -10 197 28 78 116 158 199 179 46 12 133 2 176 -21z"></path>
<path d="M725 1729 c-4 -6 2 -21 14 -33 12 -12 21 -26 21 -31 0 -5 -30 -40
-67 -77 l-67 -68 -28 27 c-26 25 -29 26 -45 11 -14 -14 -14 -20 -3 -33 11 -13
11 -20 0 -41 -13 -23 -11 -27 18 -57 30 -29 33 -30 48 -15 13 13 21 14 41 5
38 -17 53 6 23 38 l-24 26 69 69 c38 39 75 70 82 70 7 0 17 -9 23 -20 6 -11
17 -20 26 -20 20 0 29 27 14 45 -10 13 -9 19 6 36 17 19 17 21 -14 52 -29 28
-34 30 -53 19 -15 -10 -24 -11 -32 -3 -14 14 -44 14 -52 0z m105 -53 c0 -8 -4
-17 -9 -21 -12 -7 -24 12 -16 25 9 15 25 12 25 -4z m-205 -195 c7 -12 -12 -24
-25 -16 -11 7 -4 25 10 25 5 0 11 -4 15 -9z"></path>
<path d="M1384 1947 c-3 -8 -4 -54 -2 -103 l3 -89 50 -5 50 -5 0 -305 0 -305
-50 -5 -50 -5 0 -100 0 -100 205 0 205 0 0 100 0 100 -50 5 -50 5 0 100 0 100
100 5 100 5 0 95 0 95 -100 5 -100 5 0 100 0 100 103 3 102 3 0 -51 0 -51 103
3 102 3 0 150 0 150 -358 3 c-292 2 -358 0 -363 -11z m684 -69 c2 -22 -1 -38
-7 -38 -6 0 -11 5 -11 12 0 6 -7 20 -17 30 -15 17 -37 18 -280 18 -163 0 -272
-4 -284 -10 -37 -20 -18 -80 26 -80 29 0 45 -19 45 -52 0 -34 -12 -36 -25 -6
-9 20 -26 29 -82 44 -17 4 -17 96 -1 112 9 9 90 12 323 10 l310 -3 3 -37z
m-53 -70 c0 -70 -19 -82 -23 -15 l-3 47 -192 -2 -192 -3 0 -190 0 -190 98 -3
c53 -1 97 -7 97 -12 0 -5 -44 -11 -97 -12 l-98 -3 0 -190 0 -190 48 -5 c87 -9
51 -25 -63 -28 -92 -2 -110 0 -110 12 0 11 14 16 48 18 l47 3 0 395 0 395 -40
3 c-52 4 -68 9 -60 22 4 7 99 9 273 8 l267 -3 0 -57z m-305 -16 c0 -4 -10 -12
-22 -17 -13 -6 -24 -20 -26 -32 -2 -13 -8 -23 -13 -23 -10 0 -13 63 -2 73 9
10 63 9 63 -1z m248 -23 c2 -15 12 -35 23 -45 16 -14 24 -15 44 -6 15 7 25 20
25 32 0 11 5 20 11 20 6 0 9 -16 7 -37 l-3 -38 -58 -3 c-60 -3 -59 -4 -72 52
-3 16 -14 30 -25 33 -32 9 -23 25 13 21 26 -2 33 -8 35 -29z m-293 -221 c6
-13 20 -27 33 -33 34 -15 26 -27 -15 -23 -36 3 -38 5 -41 41 -4 41 8 49 23 15z
m190 -108 c0 -55 0 -55 -32 -58 -19 -2 -33 1 -33 7 0 6 7 11 15 11 22 0 38 36
25 60 -6 11 -17 20 -25 20 -8 0 -15 5 -15 11 0 6 14 9 33 7 32 -3 32 -3 32
-58z m-135 -58 c0 -4 -10 -12 -22 -17 -13 -6 -27 -20 -33 -32 -5 -13 -13 -23
-17 -23 -10 0 -11 64 -1 73 9 10 73 9 73 -1z m-60 -241 c0 -24 22 -42 63 -50
32 -7 32 -7 32 -66 l0 -60 -37 -3 c-42 -4 -50 8 -15 23 43 19 30 85 -17 85
-12 0 -27 5 -34 12 -14 14 -16 78 -2 78 6 0 10 -8 10 -19z m-122 -28 c-3 -34
-6 -38 -33 -41 -38 -5 -55 -19 -55 -46 0 -27 18 -46 42 -46 10 0 18 -5 18 -11
0 -6 -17 -9 -42 -7 l-43 3 -3 58 c-2 40 1 58 10 61 58 15 74 24 83 44 15 34
27 26 23 -15z"></path>
<path d="M2204 1947 c-2 -8 -4 -54 -2 -103 l3 -89 50 -5 50 -5 0 -305 0 -305
-50 -5 -50 -5 0 -100 0 -100 205 0 205 0 0 100 0 100 -50 5 -50 5 0 305 0 305
50 5 50 5 0 100 0 100 -203 3 c-163 2 -203 0 -208 -11z m371 -91 l0 -60 -35
-9 c-44 -11 -60 -24 -60 -48 0 -11 -4 -19 -10 -19 -14 0 -12 64 2 78 7 7 21
12 33 12 27 0 45 18 45 45 0 12 -5 26 -12 33 -15 15 -221 16 -249 2 -37 -20
-18 -80 26 -80 29 0 45 -19 45 -52 0 -34 -12 -36 -25 -6 -9 20 -26 29 -82 44
-14 4 -19 105 -6 118 4 3 79 5 167 4 l161 -3 0 -59z m-52 -1 c-1 -5 -24 -12
-50 -15 l-48 -5 0 -395 0 -395 48 -5 c89 -9 50 -25 -63 -25 -113 0 -152 16
-63 25 l48 5 0 395 0 395 -40 3 c-52 4 -68 9 -60 22 9 14 231 9 228 -5z m-43
-714 c0 -24 22 -42 63 -50 32 -7 32 -7 32 -66 l0 -60 -37 -3 c-42 -4 -50 8
-15 23 43 19 30 85 -17 85 -12 0 -27 5 -34 12 -14 14 -16 78 -2 78 6 0 10 -8
10 -19z m-122 -28 c-3 -34 -6 -38 -33 -41 -16 -2 -36 -9 -43 -15 -20 -16 -10
-61 16 -72 34 -15 26 -27 -15 -23 l-38 3 -3 58 c-2 40 1 58 10 61 58 15 74 24
83 44 15 34 27 26 23 -15z"></path>
<path d="M2717 1953 c-4 -3 -7 -73 -7 -155 l0 -149 103 3 102 3 5 45 5 45 48
0 48 0 0 -305 0 -305 -48 -5 -48 -5 0 -100 0 -100 203 0 204 0 0 100 0 100
-49 5 -48 5 0 305 0 305 50 0 50 0 0 -45 0 -45 100 0 100 0 0 150 0 150 -406
3 c-223 1 -408 -1 -412 -5z m781 -70 c4 -40 -4 -41 -30 -8 l-19 25 -321 0
c-285 0 -323 -2 -340 -17 -10 -9 -18 -27 -18 -40 0 -12 -4 -23 -10 -23 -11 0
-14 83 -3 93 4 4 171 6 372 5 l366 -3 3 -32z m-53 -75 c0 -65 -18 -76 -19 -13
l-1 40 -140 0 -140 0 0 -395 0 -395 48 -3 c33 -2 47 -7 47 -18 0 -12 -18 -14
-110 -12 -113 3 -149 19 -65 28 l46 5 0 395 -1 395 -137 0 -138 0 -5 -45 c-7
-60 -24 -57 -28 4 -5 82 -30 77 325 74 l318 -3 0 -57z m-515 -16 c0 -4 -9 -13
-20 -19 -11 -7 -23 -27 -28 -45 -8 -33 -9 -33 -68 -33 l-59 0 -3 43 c-2 25 1
42 7 42 6 0 11 -8 11 -17 0 -19 28 -53 43 -53 19 0 47 33 47 55 0 12 3 25 7
28 9 10 63 9 63 -1z m148 -346 c2 -367 1 -376 -43 -376 -12 0 -30 -9 -41 -21
-21 -23 -12 -47 24 -64 34 -15 26 -27 -15 -23 l-38 3 0 60 0 59 35 7 c60 13
60 13 60 347 0 303 -4 342 -35 342 -8 0 -15 5 -15 11 0 6 14 9 33 7 l32 -3 3
-349z m162 349 c0 -5 -50 -55 -55 -55 -8 0 -6 46 2 53 7 8 53 10 53 2z m148
-25 c8 -57 67 -79 87 -32 14 32 27 27 23 -10 -3 -33 -4 -33 -61 -36 -60 -3
-59 -4 -72 52 -3 16 -14 30 -25 33 -32 9 -23 25 13 21 26 -2 33 -8 35 -28z
m-174 -655 c14 -14 34 -25 45 -25 11 0 24 -8 29 -17 10 -21 9 -84 -2 -101 -9
-14 -76 -16 -76 -2 0 6 8 10 18 10 24 0 42 19 42 46 0 27 -17 41 -55 46 -26 3
-30 8 -33 36 -4 39 0 39 32 7z"></path>
<path d="M3634 1947 c-2 -8 -4 -54 -2 -103 l3 -89 50 -5 50 -5 0 -305 0 -305
-50 -5 -50 -5 0 -100 0 -100 205 0 205 0 0 100 0 100 -50 5 -50 5 0 100 0 100
150 0 150 0 0 -100 0 -100 -50 -5 -50 -5 0 -100 0 -100 205 0 205 0 0 100 0
100 -50 5 -50 5 0 305 0 305 50 5 50 5 0 100 0 100 -205 0 -205 0 0 -100 0
-100 50 -5 50 -5 0 -100 0 -100 -150 0 -150 0 0 100 0 100 50 5 50 5 0 100 0
100 -203 3 c-163 2 -203 0 -208 -11z m371 -91 l0 -60 -35 -9 c-44 -11 -60 -24
-60 -48 0 -11 -4 -19 -10 -19 -5 0 -10 16 -10 35 0 29 5 37 28 46 50 20 57 26
60 48 7 44 -12 51 -130 51 -60 0 -118 -5 -129 -10 -37 -20 -18 -80 26 -80 29
0 45 -19 45 -52 0 -34 -12 -36 -25 -6 -9 20 -26 29 -82 44 -17 4 -17 96 -1
112 9 9 55 12 168 10 l155 -3 0 -59z m510 0 l0 -60 -35 -9 c-44 -11 -60 -24
-60 -48 0 -11 -4 -19 -10 -19 -14 0 -12 64 2 78 7 7 21 12 33 12 27 0 45 18
45 45 0 39 -18 45 -140 45 -122 0 -140 -6 -140 -45 0 -27 18 -45 45 -45 12 0
26 -5 33 -12 14 -14 16 -78 2 -78 -5 0 -10 8 -10 19 0 24 -22 42 -63 50 -30 6
-32 9 -35 55 -5 80 -13 77 170 74 l163 -3 0 -59z m-562 -1 c-1 -5 -24 -12 -50
-15 l-48 -5 0 -190 0 -190 240 0 240 0 0 190 0 190 -48 5 c-89 9 -50 25 63 25
113 0 152 -16 63 -25 l-48 -5 0 -395 0 -395 48 -5 c89 -9 50 -25 -63 -25 -113
0 -152 16 -63 25 l48 5 0 190 0 190 -240 0 -240 0 0 -190 0 -190 48 -5 c87 -9
51 -25 -63 -28 -92 -2 -110 0 -110 12 0 11 14 16 48 18 l47 3 0 395 0 395 -40
3 c-52 4 -68 9 -60 22 9 14 231 9 228 -5z m-38 -307 c6 -13 20 -27 33 -33 34
-15 26 -27 -15 -23 -36 3 -38 5 -41 41 -4 41 8 49 23 15z m383 -15 c-3 -36 -5
-38 -40 -41 -42 -4 -50 8 -15 23 12 6 26 20 32 33 15 34 27 26 23 -15z m-328
-151 c0 -4 -10 -12 -22 -17 -13 -6 -27 -20 -33 -32 -5 -13 -13 -23 -17 -23
-10 0 -11 64 -1 73 9 10 73 9 73 -1z m328 -34 c4 -42 -8 -50 -23 -15 -6 12
-20 26 -32 32 -35 15 -27 27 15 23 35 -3 37 -5 40 -40z m-388 -207 c0 -24 22
-42 63 -50 32 -7 32 -7 32 -66 l0 -60 -37 -3 c-42 -4 -50 8 -15 23 43 19 30
85 -17 85 -12 0 -27 5 -34 12 -14 14 -16 78 -2 78 6 0 10 -8 10 -19z m388 -23
c-3 -39 -5 -43 -33 -46 -16 -2 -36 -9 -43 -15 -20 -16 -10 -61 16 -72 34 -15
26 -27 -15 -23 l-38 3 0 60 c0 59 0 59 32 66 41 8 63 26 63 50 0 11 5 19 11
19 6 0 9 -17 7 -42z m122 23 c0 -24 22 -42 63 -50 32 -7 32 -7 32 -66 l0 -60
-37 -3 c-42 -4 -50 8 -15 23 25 11 35 56 15 72 -7 6 -26 13 -43 15 -28 3 -30
7 -33 46 -2 25 1 42 7 42 6 0 11 -8 11 -19z m-632 -28 c-3 -34 -6 -38 -33 -41
-38 -5 -55 -19 -55 -46 0 -27 18 -46 42 -46 10 0 18 -4 18 -10 0 -14 -64 -12
-78 2 -16 16 -15 95 1 105 6 4 26 13 42 18 17 6 34 20 40 33 15 34 27 26 23
-15z"></path>
<path d="M4654 1947 c-2 -8 -4 -54 -2 -103 l3 -89 48 -5 47 -5 3 -290 2 -290
33 -67 c37 -75 72 -110 152 -147 51 -24 65 -26 200 -26 138 0 148 1 202 28 62
30 115 83 150 149 22 41 23 54 28 343 l5 300 48 5 49 5 0 100 0 100 -204 0
-203 0 0 -100 0 -100 48 -5 c26 -3 47 -8 47 -12 0 -5 0 -130 0 -279 l0 -271
-29 -29 c-29 -29 -31 -29 -144 -29 l-115 0 -31 36 -31 35 2 272 3 272 48 5 49
5 0 100 0 100 -201 3 c-162 2 -202 0 -207 -11z m361 -91 c0 -59 0 -60 -33 -68
-18 -5 -38 -17 -45 -28 -16 -27 -27 -25 -27 3 0 29 18 47 47 47 35 0 52 43 28
70 -16 18 -31 20 -130 20 -100 0 -114 -2 -131 -21 -27 -30 -12 -50 59 -78 l27
-11 0 -275 c0 -177 -4 -275 -10 -275 -6 0 -10 91 -10 253 0 278 0 280 -60 294
-33 9 -35 12 -38 57 -5 80 -12 77 165 74 l158 -3 0 -59z m563 52 c7 -7 12 -30
12 -53 0 -44 -13 -65 -42 -65 -11 0 -30 -11 -44 -25 -31 -31 -34 -31 -34 -2 0
29 18 47 45 47 43 0 58 39 28 72 -14 15 -32 18 -128 18 -100 0 -114 -2 -131
-21 -27 -30 -12 -50 59 -78 25 -10 27 -15 27 -66 0 -30 -4 -55 -10 -55 -5 0
-10 15 -10 33 0 43 -17 64 -60 74 -33 9 -35 12 -38 57 -5 79 -11 76 161 76
106 0 157 -4 165 -12z m-613 -53 c0 -5 -20 -12 -45 -15 l-45 -5 -3 -320 c-2
-315 -2 -321 20 -365 13 -24 40 -58 61 -74 l39 -31 142 0 c140 0 143 1 185 28
78 52 80 65 81 438 l1 324 -46 5 c-87 10 -53 25 63 28 93 2 112 0 112 -12 0
-11 -14 -16 -47 -18 l-48 -3 -5 -337 -5 -336 -30 -44 c-62 -87 -128 -112 -285
-106 -89 3 -112 7 -150 28 -51 29 -97 90 -110 146 -5 21 -10 177 -10 347 l0
307 -44 0 c-43 0 -63 10 -49 24 11 11 218 2 218 -9z m405 -605 c0 -11 -4 -20
-10 -20 -5 0 -10 9 -10 20 0 11 5 20 10 20 6 0 10 -9 10 -20z m110 -60 c0 -5
-4 -10 -10 -10 -5 0 -10 5 -10 10 0 6 5 10 10 10 6 0 10 -4 10 -10z m-660 -36
c0 -8 -4 -12 -10 -9 -5 3 -10 10 -10 16 0 5 5 9 10 9 6 0 10 -7 10 -16z m510
-19 c-7 -9 -23 -21 -34 -27 -16 -8 -14 -3 8 21 29 31 51 36 26 6z m140 16 c0
-6 -4 -13 -10 -16 -5 -3 -10 1 -10 9 0 9 5 16 10 16 6 0 10 -4 10 -9z m-505
-21 c3 -5 1 -10 -4 -10 -6 0 -11 5 -11 10 0 6 2 10 4 10 3 0 8 -4 11 -10z
m-79 -79 c23 -26 31 -40 19 -34 -26 14 -60 53 -69 78 -8 22 -9 23 50 -44z
m144 39 c0 -5 -4 -10 -9 -10 -6 0 -13 5 -16 10 -3 6 1 10 9 10 9 0 16 -4 16
-10z m395 -17 c-23 -37 -51 -59 -102 -83 -47 -23 -53 -24 -53 -11 0 5 14 12
30 16 17 4 54 29 83 55 28 27 54 49 56 50 2 0 -5 -12 -14 -27z m-425 -93 c0
-5 -4 -10 -9 -10 -6 0 -13 5 -16 10 -3 6 1 10 9 10 9 0 16 -4 16 -10z m50 -10
c0 -5 -4 -10 -10 -10 -5 0 -10 5 -10 10 0 6 5 10 10 10 6 0 10 -4 10 -10z
m190 0 c0 -5 -4 -10 -10 -10 -5 0 -10 5 -10 10 0 6 5 10 10 10 6 0 10 -4 10
-10z"></path>
<path d="M5725 1947 c-3 -7 -5 -54 -3 -103 l3 -89 45 -5 45 -5 0 -305 0 -305
-45 -5 -45 -5 0 -100 0 -100 295 0 295 0 56 28 c67 32 132 99 162 165 43 95
21 249 -46 320 -18 19 -19 26 -9 40 61 83 75 207 34 297 -29 63 -83 119 -147
153 l-50 27 -293 3 c-243 3 -293 1 -297 -11z m185 -37 c0 -5 -22 -10 -48 -10
-37 0 -54 -5 -68 -21 -27 -30 -12 -50 59 -78 19 -8 27 -18 27 -36 0 -30 -11
-32 -35 -5 -10 11 -32 24 -49 28 -29 8 -31 12 -34 56 -5 74 -2 76 78 76 40 0
70 -4 70 -10z m360 0 c0 -6 -62 -10 -165 -10 -103 0 -165 4 -165 10 0 6 62 10
165 10 103 0 165 -4 165 -10z m55 -10 c3 -5 -1 -10 -9 -10 -9 0 -16 5 -16 10
0 6 4 10 9 10 6 0 13 -4 16 -10z m118 -90 l19 -35 -26 28 c-14 15 -38 39 -53
53 l-28 26 35 -19 c19 -10 43 -34 53 -53z m-117 38 c46 -25 102 -92 114 -138
12 -46 5 -99 -21 -151 -18 -36 -72 -89 -90 -89 -17 0 -9 -19 11 -25 55 -17
111 -93 125 -168 20 -106 -67 -233 -176 -256 -67 -15 -474 -11 -474 4 0 6 20
12 45 15 l45 5 0 395 0 395 -35 3 c-48 4 -62 10 -55 23 5 7 81 10 244 7 198
-2 241 -6 267 -20z m174 -188 c0 -11 -4 -20 -10 -20 -5 0 -10 9 -10 20 0 11 5
20 10 20 6 0 10 -9 10 -20z m-16 -82 c-3 -13 -15 -40 -25 -60 -23 -45 -24 -60
-3 -101 l16 -32 -36 34 c-41 40 -44 51 -17 75 11 10 28 38 38 62 18 45 40 62
27 22z m26 -259 c0 -5 -4 -9 -10 -9 -5 0 -10 7 -10 16 0 8 5 12 10 9 6 -3 10
-10 10 -16z m10 -79 c0 -16 -4 -30 -10 -30 -5 0 -10 14 -10 30 0 17 5 30 10
30 6 0 10 -13 10 -30z m-640 -123 c0 -29 -18 -47 -45 -47 -12 0 -30 -9 -41
-21 -21 -23 -12 -47 24 -64 34 -15 26 -27 -15 -23 l-38 3 0 60 0 59 35 7 c19
4 41 17 49 28 18 28 31 27 31 -2z m593 -18 c-22 -37 -62 -79 -76 -79 -5 0 2 9
16 20 14 11 35 36 47 55 27 43 38 47 13 4z m-203 -129 c0 -5 -4 -10 -10 -10
-5 0 -10 5 -10 10 0 6 5 10 10 10 6 0 10 -4 10 -10z"></path>
<path d="M5944 1827 c-2 -7 -3 -89 -2 -182 l3 -170 150 -3 c169 -3 208 4 262
51 61 54 79 129 48 204 -40 96 -83 112 -293 113 -123 0 -164 -3 -168 -13z m84
-26 c11 -6 8 -14 -12 -34 -24 -24 -26 -33 -26 -104 0 -92 14 -127 53 -131 47
-6 29 -23 -20 -20 l-48 3 -3 135 c-2 118 0 136 15 147 20 15 24 16 41 4z m307
-41 c40 -42 28 -45 -19 -4 -22 19 -33 34 -25 34 9 0 28 -13 44 -30z m-34 -39
c49 -50 35 -124 -29 -150 -17 -7 -69 -11 -132 -9 l-105 3 -3 79 c-2 44 -1 85
2 93 4 10 34 13 121 13 115 0 117 0 146 -29z m79 -100 c0 -6 -4 -13 -10 -16
-5 -3 -10 1 -10 9 0 9 5 16 10 16 6 0 10 -4 10 -9z m-30 -51 c-6 -11 -16 -20
-22 -20 -6 0 -3 9 7 20 10 11 20 20 22 20 2 0 -1 -9 -7 -20z m-80 -50 c0 -5
-7 -10 -15 -10 -8 0 -15 5 -15 10 0 6 7 10 15 10 8 0 15 -4 15 -10z"></path>
<path d="M5944 1437 c-2 -7 -3 -98 -2 -202 l3 -190 160 -3 c175 -3 216 4 266
45 66 56 88 166 50 242 -26 50 -81 97 -128 110 -57 16 -342 14 -349 -2z m106
-37 c0 -5 -6 -10 -14 -10 -33 0 -46 -41 -46 -146 0 -95 2 -105 25 -132 14 -17
25 -33 25 -36 0 -11 -46 -6 -58 6 -13 13 -18 309 -5 321 10 11 73 8 73 -3z
m281 -22 c16 -12 29 -26 29 -32 0 -5 -10 0 -23 12 -13 12 -37 25 -55 28 -18 4
-32 11 -32 16 0 15 48 0 81 -24z m-45 -34 c41 -20 64 -59 64 -110 0 -28 -8
-44 -34 -70 l-35 -35 -123 3 -123 3 -3 99 c-1 55 0 106 2 113 8 20 208 18 252
-3z m114 -55 c0 -5 -4 -9 -10 -9 -5 0 -10 7 -10 16 0 8 5 12 10 9 6 -3 10 -10
10 -16z m0 -85 c0 -23 -38 -78 -64 -91 l-31 -16 38 42 c20 22 37 48 37 56 0 8
5 15 10 15 6 0 10 -3 10 -6z m-105 -114 c-3 -5 -10 -10 -16 -10 -5 0 -9 5 -9
10 0 6 7 10 16 10 8 0 12 -4 9 -10z"></path>
<path d="M1433 604 c-4 -10 0 -22 10 -29 12 -9 17 -27 17 -64 0 -30 -4 -50 -9
-46 -13 8 -25 -35 -13 -47 5 -5 22 -8 38 -6 23 2 28 7 26 23 -8 49 -6 60 8 60
24 0 25 36 1 42 -14 4 -20 12 -19 29 3 29 2 28 34 8 28 -19 48 -8 42 22 -5 27
-125 34 -135 8z m44 -96 c-3 -8 -6 -5 -6 6 -1 11 2 17 5 13 3 -3 4 -12 1 -19z"></path>
<path d="M1595 611 c-3 -6 -1 -20 5 -32 11 -19 10 -45 -2 -139 -3 -23 0 -25
32 -25 32 0 35 2 31 25 -5 35 -5 131 0 155 3 16 -2 21 -28 23 -17 2 -34 -2
-38 -7z"></path>
<path d="M1694 605 c-11 -28 3 -46 32 -39 l26 7 -5 -54 c-3 -30 -7 -65 -9 -79
-3 -23 0 -25 32 -25 32 0 35 2 32 25 -2 14 -6 49 -9 78 l-5 53 29 -3 c24 -3
28 0 28 22 0 24 -3 25 -73 28 -58 2 -73 0 -78 -13z m79 -22 c-7 -2 -19 -2 -25
0 -7 3 -2 5 12 5 14 0 19 -2 13 -5z"></path>
<path d="M1875 610 c-3 -5 -1 -19 5 -31 11 -19 10 -45 -2 -139 -3 -23 0 -25
32 -25 29 0 34 3 32 20 -2 11 -6 34 -9 51 -3 18 0 35 6 38 6 4 11 1 11 -6 0
-7 14 -35 31 -61 45 -72 62 -62 70 38 4 44 8 89 10 100 3 17 -1 20 -31 20 -29
0 -34 -3 -32 -20 2 -11 6 -34 9 -51 3 -18 0 -35 -6 -38 -6 -4 -11 -2 -11 3 0
6 -14 33 -31 61 -23 37 -37 50 -54 50 -13 0 -27 -4 -30 -10z"></path>
<path d="M2095 611 c-3 -6 -1 -20 5 -32 11 -19 10 -45 -2 -139 -3 -24 -2 -25
62 -25 61 0 65 2 68 24 5 32 -12 48 -33 31 -13 -11 -13 -15 -3 -21 9 -6 4 -9
-13 -9 -22 0 -26 4 -25 28 1 17 7 27 16 27 24 0 25 36 1 42 -14 4 -20 12 -19
29 3 28 13 30 35 9 21 -21 38 -14 38 16 0 22 -4 24 -62 27 -34 2 -64 -2 -68
-7z"></path>
<path d="M2272 604 c-30 -21 -30 -69 1 -88 12 -8 34 -18 50 -21 35 -9 43 -23
24 -42 -14 -14 -18 -13 -38 6 -32 29 -54 23 -54 -14 0 -29 2 -30 50 -32 63 -3
95 16 95 57 0 32 -24 53 -73 65 -34 9 -42 22 -27 41 8 9 17 11 24 5 6 -5 25
-11 41 -13 26 -3 30 0 30 22 0 23 -4 25 -51 27 -32 2 -58 -3 -72 -13z"></path>
<path d="M2442 604 c-30 -21 -30 -69 1 -88 12 -8 34 -18 50 -21 32 -8 39 -17
31 -39 -8 -21 -20 -20 -47 4 -30 28 -52 22 -52 -15 0 -29 2 -30 50 -32 64 -3
93 15 91 56 -2 37 -20 57 -65 68 -19 5 -36 14 -39 21 -6 19 27 26 53 12 32
-17 57 -6 53 22 -3 20 -10 23 -54 25 -32 2 -58 -3 -72 -13z"></path>
<path d="M2695 611 c-3 -6 -1 -20 5 -32 11 -19 10 -45 -2 -139 -2 -21 2 -26
26 -28 16 -2 33 1 38 6 12 12 0 55 -13 47 -13 -9 -11 9 3 23 9 9 9 12 0 12 -7
0 -12 7 -12 16 0 12 5 11 19 -7 18 -23 20 -23 27 -5 5 13 1 23 -15 35 -14 11
-20 23 -15 34 8 21 11 21 31 2 21 -21 38 -14 38 16 0 22 -4 24 -62 27 -34 2
-64 -2 -68 -7z"></path>
<path d="M2872 597 c-18 -19 -22 -35 -22 -84 0 -55 3 -64 26 -82 30 -24 81
-27 108 -8 15 11 19 29 20 91 1 68 -2 80 -19 92 -31 22 -88 18 -113 -9z m96
-77 c2 -56 -11 -95 -25 -74 -5 7 -17 13 -28 15 -16 3 -21 13 -23 48 -5 62 2
73 40 69 32 -3 33 -4 36 -58z"></path>
<path d="M3035 610 c-3 -5 -1 -19 5 -31 10 -18 10 -83 -1 -144 -3 -16 2 -21
25 -23 36 -4 52 10 37 35 -6 10 -11 12 -11 6 0 -7 -3 -13 -8 -13 -4 0 -6 19
-4 41 3 25 7 36 12 29 5 -8 17 -10 36 -6 24 6 26 5 15 -8 -11 -13 -11 -16 3
-16 20 0 20 -7 1 -27 -23 -23 -13 -38 27 -41 47 -4 56 19 20 53 -23 22 -25 28
-14 45 18 29 15 67 -8 90 -15 15 -33 20 -74 20 -30 0 -58 -4 -61 -10z m90 -30
c38 -14 30 -45 -12 -46 -27 -1 -32 3 -35 28 -5 31 4 34 47 18z"></path>
<path d="M3235 611 c-3 -6 1 -23 10 -38 8 -16 21 -57 28 -93 12 -58 15 -65 37
-65 13 0 25 6 28 14 3 10 0 12 -12 8 -9 -4 -16 -2 -16 3 0 16 26 11 53 -10 45
-36 57 -24 77 75 7 33 19 68 28 78 21 24 4 39 -39 35 -28 -2 -33 -7 -31 -23 2
-11 4 -41 6 -66 2 -51 -13 -57 -32 -13 -13 28 -27 31 -36 8 -7 -19 2 -37 15
-29 14 9 11 -5 -5 -20 -12 -12 -16 -9 -31 21 -9 20 -15 52 -13 77 3 41 2 42
-29 45 -17 2 -34 -2 -38 -7z"></path>
<path d="M3562 603 c-6 -10 -17 -42 -26 -72 -9 -30 -23 -62 -32 -72 -26 -29
-11 -51 33 -47 32 2 37 6 35 23 -2 11 -4 26 -4 33 -1 6 -5 12 -10 12 -4 0 -8
7 -8 15 0 8 5 15 11 15 5 0 7 -4 4 -10 -4 -6 10 -10 34 -10 43 0 51 -11 26
-37 -23 -23 -13 -38 26 -38 42 0 42 8 2 120 -25 70 -32 80 -55 83 -18 2 -30
-3 -36 -15z m48 -78 c-6 -7 -7 -15 -3 -18 3 -4 -1 -7 -9 -7 -9 0 -19 11 -22
25 -7 29 0 48 15 40 5 -4 9 2 10 12 0 10 4 5 10 -11 5 -18 5 -34 -1 -41z"></path>
<path d="M3715 610 c-3 -5 -1 -19 5 -31 10 -18 10 -83 -1 -144 -3 -16 2 -21
25 -23 36 -4 52 10 37 35 -6 10 -11 12 -11 6 0 -7 -8 -13 -17 -12 -11 0 -13 3
-5 6 6 2 12 21 12 41 0 25 3 33 9 23 6 -9 18 -12 37 -7 22 6 26 4 18 -6 -5 -7
-9 -29 -9 -48 0 -32 3 -35 33 -38 42 -4 50 17 21 57 -18 24 -20 34 -11 43 19
19 14 66 -8 88 -15 15 -33 20 -74 20 -30 0 -58 -4 -61 -10z m55 -28 c0 -4 12
-8 28 -7 20 0 27 -5 27 -20 0 -16 -7 -20 -32 -21 -27 -1 -32 3 -35 28 -3 15
-1 28 4 28 4 0 8 -4 8 -8z"></path>
<path d="M3916 611 c-4 -6 -2 -20 4 -32 10 -18 10 -83 -1 -144 -3 -16 2 -21
30 -23 83 -8 121 24 121 102 0 75 -20 98 -92 104 -34 2 -58 0 -62 -7z m114
-95 c0 -48 -25 -76 -66 -76 -23 0 -24 1 -10 16 10 9 16 33 16 59 0 24 3 50 6
59 5 14 8 14 30 -1 19 -12 24 -24 24 -57z"></path>
</g>
</svg>