<?xml version="1.0" standalone="no"?>
<!DOCTYPE svg PUBLIC "-//W3C//DTD SVG 20010904//EN"
 "http://www.w3.org/TR/2001/REC-SVG-20010904/DTD/svg10.dtd">
<svg version="1.0" xmlns="http://www.w3.org/2000/svg"
 width="238.000000pt" height="270.000000pt" viewBox="0 0 238.000000 270.000000"
 preserveAspectRatio="xMidYMid meet">
<metadata>
Created by potrace 1.15, written by Peter Selinger 2001-2017
</metadata>
<g transform="translate(0.000000,270.000000) scale(0.100000,-0.100000)"
fill="#000000" stroke="none">
<path d="M1095 2393 c-217 -30 -430 -170 -553 -362 -100 -157 -139 -372 -97
-541 59 -244 297 -652 648 -1115 104 -137 113 -140 179 -56 225 283 470 659
584 896 90 186 116 269 121 390 15 325 -188 626 -500 744 -101 38 -277 58
-382 44z m271 -274 c34 -11 89 -37 123 -60 279 -186 320 -554 88 -791 -114
-118 -223 -168 -362 -168 -164 0 -268 42 -377 152 -215 216 -212 513 7 734
145 145 328 192 521 133z"/>
<path d="M1248 1929 c-29 -16 -21 -49 22 -95 44 -47 48 -59 25 -71 -8 -5 -56
-49 -107 -98 -51 -50 -108 -103 -126 -119 l-32 -30 -43 42 c-50 49 -82 54 -99
17 -10 -22 -8 -30 10 -55 28 -37 28 -38 -4 -72 -25 -25 -26 -28 -11 -50 34
-51 87 -98 108 -98 13 0 33 10 46 22 l23 21 23 -21 c26 -24 57 -28 75 -10 20
20 14 53 -14 79 -53 49 -53 49 64 162 59 58 122 117 140 132 l32 27 45 -41
c25 -23 49 -41 55 -41 12 0 50 37 50 49 0 4 -9 20 -20 34 -24 30 -25 41 -4 57
37 32 36 46 -12 104 -51 63 -81 72 -120 35 l-23 -22 -31 27 c-34 28 -46 31
-72 15z"/>
</g>
</svg>
